<svg width="107" height="118" viewBox="0 0 107 118" fill="none" xmlns="http://www.w3.org/2000/svg">
<path d="M93.9354 25.7148C86.7575 24.9282 79.5796 24.3382 72.3571 23.8957V23.8465L71.3763 17.4548C70.7075 12.9315 69.7267 6.14648 59.2942 6.14648H47.6134C37.2254 6.14648 36.2446 12.6365 35.5313 17.4057L34.595 23.699C30.4488 23.994 26.3025 24.289 22.1563 24.7315L13.0613 25.7148C11.1888 25.9115 9.85128 27.7307 10.0296 29.7465C10.2079 31.7623 11.8129 33.2373 13.6854 33.0407L22.7804 32.0573C46.1421 29.5007 69.6821 30.484 93.3113 33.0898C93.445 33.0898 93.5342 33.0898 93.668 33.0898C95.3621 33.0898 96.8334 31.664 97.0117 29.7465C97.1455 27.7307 95.808 25.9115 93.9354 25.7148Z" fill="#525252"/>
<path d="M85.7335 40.021C84.6635 38.7919 83.1923 38.1035 81.6764 38.1035H25.3231C23.8073 38.1035 22.2914 38.7919 21.266 40.021C20.2406 41.2502 19.661 42.9218 19.7502 44.6427L22.5144 95.0877C23.0048 102.561 23.6289 111.903 39.1885 111.903H67.811C83.3706 111.903 83.9948 102.61 84.4852 95.0877L87.2494 44.6918C87.3385 42.9218 86.7589 41.2502 85.7335 40.021ZM60.9006 87.2702H46.0544C44.2264 87.2702 42.7106 85.5985 42.7106 83.5827C42.7106 81.5668 44.2264 79.8952 46.0544 79.8952H60.9006C62.7285 79.8952 64.2444 81.5668 64.2444 83.5827C64.2444 85.5985 62.7285 87.2702 60.9006 87.2702ZM64.6456 67.6035H42.3539C40.526 67.6035 39.0102 65.9318 39.0102 63.916C39.0102 61.9002 40.526 60.2285 42.3539 60.2285H64.6456C66.4735 60.2285 67.9894 61.9002 67.9894 63.916C67.9894 65.9318 66.4735 67.6035 64.6456 67.6035Z" fill="#525252"/>
</svg>
